<?xml version="1.0" encoding="utf-8" standalone="no"?>
<!DOCTYPE svg PUBLIC "-//W3C//DTD SVG 1.1//EN"
  "http://www.w3.org/Graphics/SVG/1.1/DTD/svg11.dtd">
<svg xmlns:xlink="http://www.w3.org/1999/xlink" width="720pt" height="432pt" viewBox="0 0 720 432" xmlns="http://www.w3.org/2000/svg" version="1.1">
 <metadata>
  <rdf:RDF xmlns:dc="http://purl.org/dc/elements/1.1/" xmlns:cc="http://creativecommons.org/ns#" xmlns:rdf="http://www.w3.org/1999/02/22-rdf-syntax-ns#">
   <cc:Work>
    <dc:type rdf:resource="http://purl.org/dc/dcmitype/StillImage"/>
    <dc:date>2025-03-15T14:57:53.776252</dc:date>
    <dc:format>image/svg+xml</dc:format>
    <dc:creator>
     <cc:Agent>
      <dc:title>Matplotlib v3.10.1, https://matplotlib.org/</dc:title>
     </cc:Agent>
    </dc:creator>
   </cc:Work>
  </rdf:RDF>
 </metadata>
 <defs>
  <style type="text/css">*{stroke-linejoin: round; stroke-linecap: butt}</style>
 </defs>
 <g id="figure_1">
  <g id="patch_1">
   <path d="M 0 432 
L 720 432 
L 720 0 
L 0 0 
z
" style="fill: #ffffff"/>
  </g>
  <g id="axes_1">
   <g id="patch_2">
    <path d="M 49.52 387.16 
L 709.2 387.16 
L 709.2 27.6 
L 49.52 27.6 
z
" style="fill: #ffffff"/>
   </g>
   <g id="patch_3">
    <path d="M 207.45271 151.37847 
L 316.660474 58.23509 
L 428.665325 52.781136 
L 495.30073 92.81191 
L 604.607889 228.393584 
z
" clip-path="url(#p766faa290e)" style="fill: #008000; opacity: 0.3; stroke: #008000; stroke-width: 2; stroke-linejoin: miter"/>
   </g>
   <g id="matplotlib.axis_1">
    <g id="xtick_1">
     <g id="line2d_1">
      <path d="M 79.505455 387.16 
L 79.505455 27.6 
" clip-path="url(#p766faa290e)" style="fill: none; stroke: #b0b0b0; stroke-opacity: 0.3; stroke-width: 0.8; stroke-linecap: square"/>
     </g>
     <g id="line2d_2">
      <defs>
       <path id="m08a909c04f" d="M 0 0 
L 0 3.5 
" style="stroke: #000000; stroke-width: 0.8"/>
      </defs>
      <g>
       <use xlink:href="#m08a909c04f" x="79.505455" y="387.16" style="stroke: #000000; stroke-width: 0.8"/>
      </g>
     </g>
     <g id="text_1">
      <!-- −3 -->
      <g transform="translate(72.134361 401.758438) scale(0.1 -0.1)">
       <defs>
        <path id="DejaVuSans-2212" d="M 678 2272 
L 4684 2272 
L 4684 1741 
L 678 1741 
L 678 2272 
z
" transform="scale(0.015625)"/>
        <path id="DejaVuSans-33" d="M 2597 2516 
Q 3050 2419 3304 2112 
Q 3559 1806 3559 1356 
Q 3559 666 3084 287 
Q 2609 -91 1734 -91 
Q 1441 -91 1130 -33 
Q 819 25 488 141 
L 488 750 
Q 750 597 1062 519 
Q 1375 441 1716 441 
Q 2309 441 2620 675 
Q 2931 909 2931 1356 
Q 2931 1769 2642 2001 
Q 2353 2234 1838 2234 
L 1294 2234 
L 1294 2753 
L 1863 2753 
Q 2328 2753 2575 2939 
Q 2822 3125 2822 3475 
Q 2822 3834 2567 4026 
Q 2313 4219 1838 4219 
Q 1578 4219 1281 4162 
Q 984 4106 628 3988 
L 628 4550 
Q 988 4650 1302 4700 
Q 1616 4750 1894 4750 
Q 2613 4750 3031 4423 
Q 3450 4097 3450 3541 
Q 3450 3153 3228 2886 
Q 3006 2619 2597 2516 
z
" transform="scale(0.015625)"/>
       </defs>
       <use xlink:href="#DejaVuSans-2212"/>
       <use xlink:href="#DejaVuSans-33" transform="translate(83.789062 0)"/>
      </g>
     </g>
    </g>
    <g id="xtick_2">
     <g id="line2d_3">
      <path d="M 179.45697 387.16 
L 179.45697 27.6 
" clip-path="url(#p766faa290e)" style="fill: none; stroke: #b0b0b0; stroke-opacity: 0.3; stroke-width: 0.8; stroke-linecap: square"/>
     </g>
     <g id="line2d_4">
      <g>
       <use xlink:href="#m08a909c04f" x="179.45697" y="387.16" style="stroke: #000000; stroke-width: 0.8"/>
      </g>
     </g>
     <g id="text_2">
      <!-- −2 -->
      <g transform="translate(172.085876 401.758438) scale(0.1 -0.1)">
       <defs>
        <path id="DejaVuSans-32" d="M 1228 531 
L 3431 531 
L 3431 0 
L 469 0 
L 469 531 
Q 828 903 1448 1529 
Q 2069 2156 2228 2338 
Q 2531 2678 2651 2914 
Q 2772 3150 2772 3378 
Q 2772 3750 2511 3984 
Q 2250 4219 1831 4219 
Q 1534 4219 1204 4116 
Q 875 4013 500 3803 
L 500 4441 
Q 881 4594 1212 4672 
Q 1544 4750 1819 4750 
Q 2544 4750 2975 4387 
Q 3406 4025 3406 3419 
Q 3406 3131 3298 2873 
Q 3191 2616 2906 2266 
Q 2828 2175 2409 1742 
Q 1991 1309 1228 531 
z
" transform="scale(0.015625)"/>
       </defs>
       <use xlink:href="#DejaVuSans-2212"/>
       <use xlink:href="#DejaVuSans-32" transform="translate(83.789062 0)"/>
      </g>
     </g>
    </g>
    <g id="xtick_3">
     <g id="line2d_5">
      <path d="M 279.408485 387.16 
L 279.408485 27.6 
" clip-path="url(#p766faa290e)" style="fill: none; stroke: #b0b0b0; stroke-opacity: 0.3; stroke-width: 0.8; stroke-linecap: square"/>
     </g>
     <g id="line2d_6">
      <g>
       <use xlink:href="#m08a909c04f" x="279.408485" y="387.16" style="stroke: #000000; stroke-width: 0.8"/>
      </g>
     </g>
     <g id="text_3">
      <!-- −1 -->
      <g transform="translate(272.037391 401.758438) scale(0.1 -0.1)">
       <defs>
        <path id="DejaVuSans-31" d="M 794 531 
L 1825 531 
L 1825 4091 
L 703 3866 
L 703 4441 
L 1819 4666 
L 2450 4666 
L 2450 531 
L 3481 531 
L 3481 0 
L 794 0 
L 794 531 
z
" transform="scale(0.015625)"/>
       </defs>
       <use xlink:href="#DejaVuSans-2212"/>
       <use xlink:href="#DejaVuSans-31" transform="translate(83.789062 0)"/>
      </g>
     </g>
    </g>
    <g id="xtick_4">
     <g id="line2d_7">
      <path d="M 379.36 387.16 
L 379.36 27.6 
" clip-path="url(#p766faa290e)" style="fill: none; stroke: #b0b0b0; stroke-opacity: 0.3; stroke-width: 0.8; stroke-linecap: square"/>
     </g>
     <g id="line2d_8">
      <g>
       <use xlink:href="#m08a909c04f" x="379.36" y="387.16" style="stroke: #000000; stroke-width: 0.8"/>
      </g>
     </g>
     <g id="text_4">
      <!-- 0 -->
      <g transform="translate(376.17875 401.758438) scale(0.1 -0.1)">
       <defs>
        <path id="DejaVuSans-30" d="M 2034 4250 
Q 1547 4250 1301 3770 
Q 1056 3291 1056 2328 
Q 1056 1369 1301 889 
Q 1547 409 2034 409 
Q 2525 409 2770 889 
Q 3016 1369 3016 2328 
Q 3016 3291 2770 3770 
Q 2525 4250 2034 4250 
z
M 2034 4750 
Q 2819 4750 3233 4129 
Q 3647 3509 3647 2328 
Q 3647 1150 3233 529 
Q 2819 -91 2034 -91 
Q 1250 -91 836 529 
Q 422 1150 422 2328 
Q 422 3509 836 4129 
Q 1250 4750 2034 4750 
z
" transform="scale(0.015625)"/>
       </defs>
       <use xlink:href="#DejaVuSans-30"/>
      </g>
     </g>
    </g>
    <g id="xtick_5">
     <g id="line2d_9">
      <path d="M 479.311515 387.16 
L 479.311515 27.6 
" clip-path="url(#p766faa290e)" style="fill: none; stroke: #b0b0b0; stroke-opacity: 0.3; stroke-width: 0.8; stroke-linecap: square"/>
     </g>
     <g id="line2d_10">
      <g>
       <use xlink:href="#m08a909c04f" x="479.311515" y="387.16" style="stroke: #000000; stroke-width: 0.8"/>
      </g>
     </g>
     <g id="text_5">
      <!-- 1 -->
      <g transform="translate(476.130265 401.758438) scale(0.1 -0.1)">
       <use xlink:href="#DejaVuSans-31"/>
      </g>
     </g>
    </g>
    <g id="xtick_6">
     <g id="line2d_11">
      <path d="M 579.26303 387.16 
L 579.26303 27.6 
" clip-path="url(#p766faa290e)" style="fill: none; stroke: #b0b0b0; stroke-opacity: 0.3; stroke-width: 0.8; stroke-linecap: square"/>
     </g>
     <g id="line2d_12">
      <g>
       <use xlink:href="#m08a909c04f" x="579.26303" y="387.16" style="stroke: #000000; stroke-width: 0.8"/>
      </g>
     </g>
     <g id="text_6">
      <!-- 2 -->
      <g transform="translate(576.08178 401.758438) scale(0.1 -0.1)">
       <use xlink:href="#DejaVuSans-32"/>
      </g>
     </g>
    </g>
    <g id="xtick_7">
     <g id="line2d_13">
      <path d="M 679.214545 387.16 
L 679.214545 27.6 
" clip-path="url(#p766faa290e)" style="fill: none; stroke: #b0b0b0; stroke-opacity: 0.3; stroke-width: 0.8; stroke-linecap: square"/>
     </g>
     <g id="line2d_14">
      <g>
       <use xlink:href="#m08a909c04f" x="679.214545" y="387.16" style="stroke: #000000; stroke-width: 0.8"/>
      </g>
     </g>
     <g id="text_7">
      <!-- 3 -->
      <g transform="translate(676.033295 401.758438) scale(0.1 -0.1)">
       <use xlink:href="#DejaVuSans-33"/>
      </g>
     </g>
    </g>
    <g id="text_8">
     <!-- x -->
     <g transform="translate(375.80875 416.95625) scale(0.12 -0.12)">
      <defs>
       <path id="DejaVuSans-78" d="M 3513 3500 
L 2247 1797 
L 3578 0 
L 2900 0 
L 1881 1375 
L 863 0 
L 184 0 
L 1544 1831 
L 300 3500 
L 978 3500 
L 1906 2253 
L 2834 3500 
L 3513 3500 
z
" transform="scale(0.015625)"/>
      </defs>
      <use xlink:href="#DejaVuSans-78"/>
     </g>
    </g>
   </g>
   <g id="matplotlib.axis_2">
    <g id="ytick_1">
     <g id="line2d_15">
      <path d="M 49.52 334.497135 
L 709.2 334.497135 
" clip-path="url(#p766faa290e)" style="fill: none; stroke: #b0b0b0; stroke-opacity: 0.3; stroke-width: 0.8; stroke-linecap: square"/>
     </g>
     <g id="line2d_16">
      <defs>
       <path id="m8b5fb133ca" d="M 0 0 
L -3.5 0 
" style="stroke: #000000; stroke-width: 0.8"/>
      </defs>
      <g>
       <use xlink:href="#m8b5fb133ca" x="49.52" y="334.497135" style="stroke: #000000; stroke-width: 0.8"/>
      </g>
     </g>
     <g id="text_9">
      <!-- −8 -->
      <g transform="translate(27.777813 338.296354) scale(0.1 -0.1)">
       <defs>
        <path id="DejaVuSans-38" d="M 2034 2216 
Q 1584 2216 1326 1975 
Q 1069 1734 1069 1313 
Q 1069 891 1326 650 
Q 1584 409 2034 409 
Q 2484 409 2743 651 
Q 3003 894 3003 1313 
Q 3003 1734 2745 1975 
Q 2488 2216 2034 2216 
z
M 1403 2484 
Q 997 2584 770 2862 
Q 544 3141 544 3541 
Q 544 4100 942 4425 
Q 1341 4750 2034 4750 
Q 2731 4750 3128 4425 
Q 3525 4100 3525 3541 
Q 3525 3141 3298 2862 
Q 3072 2584 2669 2484 
Q 3125 2378 3379 2068 
Q 3634 1759 3634 1313 
Q 3634 634 3220 271 
Q 2806 -91 2034 -91 
Q 1263 -91 848 271 
Q 434 634 434 1313 
Q 434 1759 690 2068 
Q 947 2378 1403 2484 
z
M 1172 3481 
Q 1172 3119 1398 2916 
Q 1625 2713 2034 2713 
Q 2441 2713 2670 2916 
Q 2900 3119 2900 3481 
Q 2900 3844 2670 4047 
Q 2441 4250 2034 4250 
Q 1625 4250 1398 4047 
Q 1172 3844 1172 3481 
z
" transform="scale(0.015625)"/>
       </defs>
       <use xlink:href="#DejaVuSans-2212"/>
       <use xlink:href="#DejaVuSans-38" transform="translate(83.789062 0)"/>
      </g>
     </g>
    </g>
    <g id="ytick_2">
     <g id="line2d_17">
      <path d="M 49.52 261.858679 
L 709.2 261.858679 
" clip-path="url(#p766faa290e)" style="fill: none; stroke: #b0b0b0; stroke-opacity: 0.3; stroke-width: 0.8; stroke-linecap: square"/>
     </g>
     <g id="line2d_18">
      <g>
       <use xlink:href="#m8b5fb133ca" x="49.52" y="261.858679" style="stroke: #000000; stroke-width: 0.8"/>
      </g>
     </g>
     <g id="text_10">
      <!-- −6 -->
      <g transform="translate(27.777813 265.657897) scale(0.1 -0.1)">
       <defs>
        <path id="DejaVuSans-36" d="M 2113 2584 
Q 1688 2584 1439 2293 
Q 1191 2003 1191 1497 
Q 1191 994 1439 701 
Q 1688 409 2113 409 
Q 2538 409 2786 701 
Q 3034 994 3034 1497 
Q 3034 2003 2786 2293 
Q 2538 2584 2113 2584 
z
M 3366 4563 
L 3366 3988 
Q 3128 4100 2886 4159 
Q 2644 4219 2406 4219 
Q 1781 4219 1451 3797 
Q 1122 3375 1075 2522 
Q 1259 2794 1537 2939 
Q 1816 3084 2150 3084 
Q 2853 3084 3261 2657 
Q 3669 2231 3669 1497 
Q 3669 778 3244 343 
Q 2819 -91 2113 -91 
Q 1303 -91 875 529 
Q 447 1150 447 2328 
Q 447 3434 972 4092 
Q 1497 4750 2381 4750 
Q 2619 4750 2861 4703 
Q 3103 4656 3366 4563 
z
" transform="scale(0.015625)"/>
       </defs>
       <use xlink:href="#DejaVuSans-2212"/>
       <use xlink:href="#DejaVuSans-36" transform="translate(83.789062 0)"/>
      </g>
     </g>
    </g>
    <g id="ytick_3">
     <g id="line2d_19">
      <path d="M 49.52 189.220222 
L 709.2 189.220222 
" clip-path="url(#p766faa290e)" style="fill: none; stroke: #b0b0b0; stroke-opacity: 0.3; stroke-width: 0.8; stroke-linecap: square"/>
     </g>
     <g id="line2d_20">
      <g>
       <use xlink:href="#m8b5fb133ca" x="49.52" y="189.220222" style="stroke: #000000; stroke-width: 0.8"/>
      </g>
     </g>
     <g id="text_11">
      <!-- −4 -->
      <g transform="translate(27.777813 193.019441) scale(0.1 -0.1)">
       <defs>
        <path id="DejaVuSans-34" d="M 2419 4116 
L 825 1625 
L 2419 1625 
L 2419 4116 
z
M 2253 4666 
L 3047 4666 
L 3047 1625 
L 3713 1625 
L 3713 1100 
L 3047 1100 
L 3047 0 
L 2419 0 
L 2419 1100 
L 313 1100 
L 313 1709 
L 2253 4666 
z
" transform="scale(0.015625)"/>
       </defs>
       <use xlink:href="#DejaVuSans-2212"/>
       <use xlink:href="#DejaVuSans-34" transform="translate(83.789062 0)"/>
      </g>
     </g>
    </g>
    <g id="ytick_4">
     <g id="line2d_21">
      <path d="M 49.52 116.581765 
L 709.2 116.581765 
" clip-path="url(#p766faa290e)" style="fill: none; stroke: #b0b0b0; stroke-opacity: 0.3; stroke-width: 0.8; stroke-linecap: square"/>
     </g>
     <g id="line2d_22">
      <g>
       <use xlink:href="#m8b5fb133ca" x="49.52" y="116.581765" style="stroke: #000000; stroke-width: 0.8"/>
      </g>
     </g>
     <g id="text_12">
      <!-- −2 -->
      <g transform="translate(27.777813 120.380984) scale(0.1 -0.1)">
       <use xlink:href="#DejaVuSans-2212"/>
       <use xlink:href="#DejaVuSans-32" transform="translate(83.789062 0)"/>
      </g>
     </g>
    </g>
    <g id="ytick_5">
     <g id="line2d_23">
      <path d="M 49.52 43.943309 
L 709.2 43.943309 
" clip-path="url(#p766faa290e)" style="fill: none; stroke: #b0b0b0; stroke-opacity: 0.3; stroke-width: 0.8; stroke-linecap: square"/>
     </g>
     <g id="line2d_24">
      <g>
       <use xlink:href="#m8b5fb133ca" x="49.52" y="43.943309" style="stroke: #000000; stroke-width: 0.8"/>
      </g>
     </g>
     <g id="text_13">
      <!-- 0 -->
      <g transform="translate(36.1575 47.742528) scale(0.1 -0.1)">
       <use xlink:href="#DejaVuSans-30"/>
      </g>
     </g>
    </g>
    <g id="text_14">
     <!-- f(x) -->
     <g transform="translate(21.282188 217.725313) rotate(-90) scale(0.12 -0.12)">
      <defs>
       <path id="DejaVuSans-66" d="M 2375 4863 
L 2375 4384 
L 1825 4384 
Q 1516 4384 1395 4259 
Q 1275 4134 1275 3809 
L 1275 3500 
L 2222 3500 
L 2222 3053 
L 1275 3053 
L 1275 0 
L 697 0 
L 697 3053 
L 147 3053 
L 147 3500 
L 697 3500 
L 697 3744 
Q 697 4328 969 4595 
Q 1241 4863 1831 4863 
L 2375 4863 
z
" transform="scale(0.015625)"/>
       <path id="DejaVuSans-28" d="M 1984 4856 
Q 1566 4138 1362 3434 
Q 1159 2731 1159 2009 
Q 1159 1288 1364 580 
Q 1569 -128 1984 -844 
L 1484 -844 
Q 1016 -109 783 600 
Q 550 1309 550 2009 
Q 550 2706 781 3412 
Q 1013 4119 1484 4856 
L 1984 4856 
z
" transform="scale(0.015625)"/>
       <path id="DejaVuSans-29" d="M 513 4856 
L 1013 4856 
Q 1481 4119 1714 3412 
Q 1947 2706 1947 2009 
Q 1947 1309 1714 600 
Q 1481 -109 1013 -844 
L 513 -844 
Q 928 -128 1133 580 
Q 1338 1288 1338 2009 
Q 1338 2731 1133 3434 
Q 928 4138 513 4856 
z
" transform="scale(0.015625)"/>
      </defs>
      <use xlink:href="#DejaVuSans-66"/>
      <use xlink:href="#DejaVuSans-28" transform="translate(35.205078 0)"/>
      <use xlink:href="#DejaVuSans-78" transform="translate(74.21875 0)"/>
      <use xlink:href="#DejaVuSans-29" transform="translate(133.398438 0)"/>
     </g>
    </g>
   </g>
   <g id="line2d_25">
    <path d="M 79.505455 370.816364 
L 87.909786 352.749931 
L 96.314118 335.197062 
L 104.718449 318.157757 
L 113.122781 301.632015 
L 121.527113 285.619837 
L 129.331135 271.211235 
L 137.135157 257.24545 
L 144.939179 243.722483 
L 152.743201 230.642333 
L 160.547224 218.005001 
L 168.351246 205.810487 
L 175.554959 194.947045 
L 182.758671 184.460916 
L 189.962384 174.352098 
L 197.166097 164.620593 
L 204.36981 155.266399 
L 211.573523 146.289518 
L 218.777235 137.689948 
L 225.380639 130.138468 
L 231.984042 122.904034 
L 238.587446 115.986647 
L 245.190849 109.386308 
L 251.794252 103.103015 
L 258.397656 97.136769 
L 265.001059 91.487569 
L 271.604463 86.155417 
L 277.607557 81.583129 
L 283.610651 77.272864 
L 289.613745 73.22462 
L 295.616839 69.438399 
L 301.619933 65.9142 
L 307.623027 62.652023 
L 313.626121 59.651869 
L 319.629215 56.913737 
L 325.632309 54.437627 
L 331.635403 52.223539 
L 337.038187 50.454889 
L 342.440972 48.898477 
L 347.843756 47.554303 
L 353.246541 46.422367 
L 358.649326 45.502669 
L 364.05211 44.795209 
L 369.454895 44.299987 
L 374.857679 44.017003 
L 380.260464 43.946257 
L 385.663249 44.087749 
L 391.066033 44.441479 
L 396.468818 45.007447 
L 401.871603 45.785653 
L 407.274387 46.776097 
L 412.677172 47.978779 
L 418.079956 49.393699 
L 423.482741 51.020857 
L 428.885526 52.860253 
L 434.88862 55.152947 
L 440.891714 57.707664 
L 446.894808 60.524403 
L 452.897902 63.603164 
L 458.900996 66.943947 
L 464.90409 70.546753 
L 470.907184 74.411581 
L 476.910278 78.538431 
L 482.913372 82.927303 
L 488.916466 87.578198 
L 494.91956 92.491114 
L 501.522963 98.197959 
L 508.126366 104.22185 
L 514.72977 110.562787 
L 521.333173 117.220772 
L 527.936577 124.195804 
L 534.53998 131.487882 
L 541.143383 139.097008 
L 547.746787 147.02318 
L 554.9505 156.031504 
L 562.154212 165.41714 
L 569.357925 175.180089 
L 576.561638 185.320349 
L 583.765351 195.837921 
L 590.969064 206.732805 
L 598.172776 218.005001 
L 605.976799 230.642333 
L 613.780821 243.722483 
L 621.584843 257.24545 
L 629.388865 271.211235 
L 637.192887 285.619837 
L 644.99691 300.471257 
L 653.401241 316.960315 
L 661.805573 333.962938 
L 670.209904 351.479123 
L 678.614236 369.508873 
L 679.214545 370.816364 
L 679.214545 370.816364 
" clip-path="url(#p766faa290e)" style="fill: none; stroke: #0000ff; stroke-width: 2; stroke-linecap: square"/>
   </g>
   <g id="patch_4">
    <path d="M 49.52 387.16 
L 49.52 27.6 
" style="fill: none; stroke: #000000; stroke-width: 0.8; stroke-linejoin: miter; stroke-linecap: square"/>
   </g>
   <g id="patch_5">
    <path d="M 709.2 387.16 
L 709.2 27.6 
" style="fill: none; stroke: #000000; stroke-width: 0.8; stroke-linejoin: miter; stroke-linecap: square"/>
   </g>
   <g id="patch_6">
    <path d="M 49.52 387.16 
L 709.2 387.16 
" style="fill: none; stroke: #000000; stroke-width: 0.8; stroke-linejoin: miter; stroke-linecap: square"/>
   </g>
   <g id="patch_7">
    <path d="M 49.52 27.6 
L 709.2 27.6 
" style="fill: none; stroke: #000000; stroke-width: 0.8; stroke-linejoin: miter; stroke-linecap: square"/>
   </g>
   <g id="PathCollection_1">
    <defs>
     <path id="m091d975221" d="M 0 3.535534 
C 0.937635 3.535534 1.836992 3.163008 2.5 2.5 
C 3.163008 1.836992 3.535534 0.937635 3.535534 0 
C 3.535534 -0.937635 3.163008 -1.836992 2.5 -2.5 
C 1.836992 -3.163008 0.937635 -3.535534 0 -3.535534 
C -0.937635 -3.535534 -1.836992 -3.163008 -2.5 -2.5 
C -3.163008 -1.836992 -3.535534 -0.937635 -3.535534 0 
C -3.535534 0.937635 -3.163008 1.836992 -2.5 2.5 
C -1.836992 3.163008 -0.937635 3.535534 0 3.535534 
z
" style="stroke: #ff0000"/>
    </defs>
    <g clip-path="url(#p766faa290e)">
     <use xlink:href="#m091d975221" x="207.45271" y="151.37847" style="fill: #ff0000; stroke: #ff0000"/>
     <use xlink:href="#m091d975221" x="316.660474" y="58.23509" style="fill: #ff0000; stroke: #ff0000"/>
     <use xlink:href="#m091d975221" x="428.665325" y="52.781136" style="fill: #ff0000; stroke: #ff0000"/>
     <use xlink:href="#m091d975221" x="495.30073" y="92.81191" style="fill: #ff0000; stroke: #ff0000"/>
     <use xlink:href="#m091d975221" x="604.607889" y="228.393584" style="fill: #ff0000; stroke: #ff0000"/>
    </g>
   </g>
   <g id="text_15">
    <g id="patch_8">
     <path d="M 266.2 340.95276 
L 492.52 340.95276 
L 492.52 321.41901 
L 266.2 321.41901 
z
" style="fill: #ffffff; opacity: 0.7; stroke: #000000; stroke-linejoin: miter"/>
    </g>
    <!-- ($E[X]$, $E[f(X)]$) is below ($E[X]$, $f(E[X])$) -->
    <g transform="translate(270.16 334.497135) scale(0.12 -0.12)">
     <defs>
      <path id="DejaVuSans-Oblique-45" d="M 1081 4666 
L 4031 4666 
L 3928 4134 
L 1606 4134 
L 1338 2753 
L 3566 2753 
L 3463 2222 
L 1234 2222 
L 909 531 
L 3284 531 
L 3181 0 
L 172 0 
L 1081 4666 
z
" transform="scale(0.015625)"/>
      <path id="DejaVuSans-5b" d="M 550 4863 
L 1875 4863 
L 1875 4416 
L 1125 4416 
L 1125 -397 
L 1875 -397 
L 1875 -844 
L 550 -844 
L 550 4863 
z
" transform="scale(0.015625)"/>
      <path id="DejaVuSans-Oblique-58" d="M 878 4666 
L 1516 4666 
L 2316 2981 
L 3763 4666 
L 4500 4666 
L 2578 2438 
L 3738 0 
L 3103 0 
L 2163 1966 
L 459 0 
L -275 0 
L 1906 2509 
L 878 4666 
z
" transform="scale(0.015625)"/>
      <path id="DejaVuSans-5d" d="M 1947 4863 
L 1947 -844 
L 622 -844 
L 622 -397 
L 1369 -397 
L 1369 4416 
L 622 4416 
L 622 4863 
L 1947 4863 
z
" transform="scale(0.015625)"/>
      <path id="DejaVuSans-2c" d="M 750 794 
L 1409 794 
L 1409 256 
L 897 -744 
L 494 -744 
L 750 256 
L 750 794 
z
" transform="scale(0.015625)"/>
      <path id="DejaVuSans-20" transform="scale(0.015625)"/>
      <path id="DejaVuSans-Oblique-66" d="M 3059 4863 
L 2969 4384 
L 2419 4384 
Q 2106 4384 1964 4261 
Q 1822 4138 1753 3809 
L 1691 3500 
L 2638 3500 
L 2553 3053 
L 1606 3053 
L 1013 0 
L 434 0 
L 1031 3053 
L 481 3053 
L 563 3500 
L 1113 3500 
L 1159 3744 
Q 1278 4363 1576 4613 
Q 1875 4863 2516 4863 
L 3059 4863 
z
" transform="scale(0.015625)"/>
      <path id="DejaVuSans-69" d="M 603 3500 
L 1178 3500 
L 1178 0 
L 603 0 
L 603 3500 
z
M 603 4863 
L 1178 4863 
L 1178 4134 
L 603 4134 
L 603 4863 
z
" transform="scale(0.015625)"/>
      <path id="DejaVuSans-73" d="M 2834 3397 
L 2834 2853 
Q 2591 2978 2328 3040 
Q 2066 3103 1784 3103 
Q 1356 3103 1142 2972 
Q 928 2841 928 2578 
Q 928 2378 1081 2264 
Q 1234 2150 1697 2047 
L 1894 2003 
Q 2506 1872 2764 1633 
Q 3022 1394 3022 966 
Q 3022 478 2636 193 
Q 2250 -91 1575 -91 
Q 1294 -91 989 -36 
Q 684 19 347 128 
L 347 722 
Q 666 556 975 473 
Q 1284 391 1588 391 
Q 1994 391 2212 530 
Q 2431 669 2431 922 
Q 2431 1156 2273 1281 
Q 2116 1406 1581 1522 
L 1381 1569 
Q 847 1681 609 1914 
Q 372 2147 372 2553 
Q 372 3047 722 3315 
Q 1072 3584 1716 3584 
Q 2034 3584 2315 3537 
Q 2597 3491 2834 3397 
z
" transform="scale(0.015625)"/>
      <path id="DejaVuSans-62" d="M 3116 1747 
Q 3116 2381 2855 2742 
Q 2594 3103 2138 3103 
Q 1681 3103 1420 2742 
Q 1159 2381 1159 1747 
Q 1159 1113 1420 752 
Q 1681 391 2138 391 
Q 2594 391 2855 752 
Q 3116 1113 3116 1747 
z
M 1159 2969 
Q 1341 3281 1617 3432 
Q 1894 3584 2278 3584 
Q 2916 3584 3314 3078 
Q 3713 2572 3713 1747 
Q 3713 922 3314 415 
Q 2916 -91 2278 -91 
Q 1894 -91 1617 61 
Q 1341 213 1159 525 
L 1159 0 
L 581 0 
L 581 4863 
L 1159 4863 
L 1159 2969 
z
" transform="scale(0.015625)"/>
      <path id="DejaVuSans-65" d="M 3597 1894 
L 3597 1613 
L 953 1613 
Q 991 1019 1311 708 
Q 1631 397 2203 397 
Q 2534 397 2845 478 
Q 3156 559 3463 722 
L 3463 178 
Q 3153 47 2828 -22 
Q 2503 -91 2169 -91 
Q 1331 -91 842 396 
Q 353 884 353 1716 
Q 353 2575 817 3079 
Q 1281 3584 2069 3584 
Q 2775 3584 3186 3129 
Q 3597 2675 3597 1894 
z
M 3022 2063 
Q 3016 2534 2758 2815 
Q 2500 3097 2075 3097 
Q 1594 3097 1305 2825 
Q 1016 2553 972 2059 
L 3022 2063 
z
" transform="scale(0.015625)"/>
      <path id="DejaVuSans-6c" d="M 603 4863 
L 1178 4863 
L 1178 0 
L 603 0 
L 603 4863 
z
" transform="scale(0.015625)"/>
      <path id="DejaVuSans-6f" d="M 1959 3097 
Q 1497 3097 1228 2736 
Q 959 2375 959 1747 
Q 959 1119 1226 758 
Q 1494 397 1959 397 
Q 2419 397 2687 759 
Q 2956 1122 2956 1747 
Q 2956 2369 2687 2733 
Q 2419 3097 1959 3097 
z
M 1959 3584 
Q 2709 3584 3137 3096 
Q 3566 2609 3566 1747 
Q 3566 888 3137 398 
Q 2709 -91 1959 -91 
Q 1206 -91 779 398 
Q 353 888 353 1747 
Q 353 2609 779 3096 
Q 1206 3584 1959 3584 
z
" transform="scale(0.015625)"/>
      <path id="DejaVuSans-77" d="M 269 3500 
L 844 3500 
L 1563 769 
L 2278 3500 
L 2956 3500 
L 3675 769 
L 4391 3500 
L 4966 3500 
L 4050 0 
L 3372 0 
L 2619 2869 
L 1863 0 
L 1184 0 
L 269 3500 
z
" transform="scale(0.015625)"/>
     </defs>
     <use xlink:href="#DejaVuSans-28" transform="translate(0 0.015625)"/>
     <use xlink:href="#DejaVuSans-Oblique-45" transform="translate(39.013672 0.015625)"/>
     <use xlink:href="#DejaVuSans-5b" transform="translate(102.197266 0.015625)"/>
     <use xlink:href="#DejaVuSans-Oblique-58" transform="translate(141.210938 0.015625)"/>
     <use xlink:href="#DejaVuSans-5d" transform="translate(209.716797 0.015625)"/>
     <use xlink:href="#DejaVuSans-2c" transform="translate(248.730469 0.015625)"/>
     <use xlink:href="#DejaVuSans-20" transform="translate(280.517578 0.015625)"/>
     <use xlink:href="#DejaVuSans-Oblique-45" transform="translate(312.304688 0.015625)"/>
     <use xlink:href="#DejaVuSans-5b" transform="translate(375.488281 0.015625)"/>
     <use xlink:href="#DejaVuSans-Oblique-66" transform="translate(414.501953 0.015625)"/>
     <use xlink:href="#DejaVuSans-28" transform="translate(449.707031 0.015625)"/>
     <use xlink:href="#DejaVuSans-Oblique-58" transform="translate(488.720703 0.015625)"/>
     <use xlink:href="#DejaVuSans-29" transform="translate(557.226562 0.015625)"/>
     <use xlink:href="#DejaVuSans-5d" transform="translate(596.240234 0.015625)"/>
     <use xlink:href="#DejaVuSans-29" transform="translate(635.253906 0.015625)"/>
     <use xlink:href="#DejaVuSans-20" transform="translate(674.267578 0.015625)"/>
     <use xlink:href="#DejaVuSans-69" transform="translate(706.054688 0.015625)"/>
     <use xlink:href="#DejaVuSans-73" transform="translate(733.837891 0.015625)"/>
     <use xlink:href="#DejaVuSans-20" transform="translate(785.9375 0.015625)"/>
     <use xlink:href="#DejaVuSans-62" transform="translate(817.724609 0.015625)"/>
     <use xlink:href="#DejaVuSans-65" transform="translate(881.201172 0.015625)"/>
     <use xlink:href="#DejaVuSans-6c" transform="translate(942.724609 0.015625)"/>
     <use xlink:href="#DejaVuSans-6f" transform="translate(970.507812 0.015625)"/>
     <use xlink:href="#DejaVuSans-77" transform="translate(1031.689453 0.015625)"/>
     <use xlink:href="#DejaVuSans-20" transform="translate(1113.476562 0.015625)"/>
     <use xlink:href="#DejaVuSans-28" transform="translate(1145.263672 0.015625)"/>
     <use xlink:href="#DejaVuSans-Oblique-45" transform="translate(1184.277344 0.015625)"/>
     <use xlink:href="#DejaVuSans-5b" transform="translate(1247.460938 0.015625)"/>
     <use xlink:href="#DejaVuSans-Oblique-58" transform="translate(1286.474609 0.015625)"/>
     <use xlink:href="#DejaVuSans-5d" transform="translate(1354.980469 0.015625)"/>
     <use xlink:href="#DejaVuSans-2c" transform="translate(1393.994141 0.015625)"/>
     <use xlink:href="#DejaVuSans-20" transform="translate(1425.78125 0.015625)"/>
     <use xlink:href="#DejaVuSans-Oblique-66" transform="translate(1457.568359 0.015625)"/>
     <use xlink:href="#DejaVuSans-28" transform="translate(1492.773438 0.015625)"/>
     <use xlink:href="#DejaVuSans-Oblique-45" transform="translate(1531.787109 0.015625)"/>
     <use xlink:href="#DejaVuSans-5b" transform="translate(1594.970703 0.015625)"/>
     <use xlink:href="#DejaVuSans-Oblique-58" transform="translate(1633.984375 0.015625)"/>
     <use xlink:href="#DejaVuSans-5d" transform="translate(1702.490234 0.015625)"/>
     <use xlink:href="#DejaVuSans-29" transform="translate(1741.503906 0.015625)"/>
     <use xlink:href="#DejaVuSans-29" transform="translate(1780.517578 0.015625)"/>
    </g>
   </g>
   <g id="text_16">
    <!-- Visualization of Jensen's Inequality for a Concave Function -->
    <g transform="translate(175.424844 21.6) scale(0.14 -0.14)">
     <defs>
      <path id="DejaVuSans-56" d="M 1831 0 
L 50 4666 
L 709 4666 
L 2188 738 
L 3669 4666 
L 4325 4666 
L 2547 0 
L 1831 0 
z
" transform="scale(0.015625)"/>
      <path id="DejaVuSans-75" d="M 544 1381 
L 544 3500 
L 1119 3500 
L 1119 1403 
Q 1119 906 1312 657 
Q 1506 409 1894 409 
Q 2359 409 2629 706 
Q 2900 1003 2900 1516 
L 2900 3500 
L 3475 3500 
L 3475 0 
L 2900 0 
L 2900 538 
Q 2691 219 2414 64 
Q 2138 -91 1772 -91 
Q 1169 -91 856 284 
Q 544 659 544 1381 
z
M 1991 3584 
L 1991 3584 
z
" transform="scale(0.015625)"/>
      <path id="DejaVuSans-61" d="M 2194 1759 
Q 1497 1759 1228 1600 
Q 959 1441 959 1056 
Q 959 750 1161 570 
Q 1363 391 1709 391 
Q 2188 391 2477 730 
Q 2766 1069 2766 1631 
L 2766 1759 
L 2194 1759 
z
M 3341 1997 
L 3341 0 
L 2766 0 
L 2766 531 
Q 2569 213 2275 61 
Q 1981 -91 1556 -91 
Q 1019 -91 701 211 
Q 384 513 384 1019 
Q 384 1609 779 1909 
Q 1175 2209 1959 2209 
L 2766 2209 
L 2766 2266 
Q 2766 2663 2505 2880 
Q 2244 3097 1772 3097 
Q 1472 3097 1187 3025 
Q 903 2953 641 2809 
L 641 3341 
Q 956 3463 1253 3523 
Q 1550 3584 1831 3584 
Q 2591 3584 2966 3190 
Q 3341 2797 3341 1997 
z
" transform="scale(0.015625)"/>
      <path id="DejaVuSans-7a" d="M 353 3500 
L 3084 3500 
L 3084 2975 
L 922 459 
L 3084 459 
L 3084 0 
L 275 0 
L 275 525 
L 2438 3041 
L 353 3041 
L 353 3500 
z
" transform="scale(0.015625)"/>
      <path id="DejaVuSans-74" d="M 1172 4494 
L 1172 3500 
L 2356 3500 
L 2356 3053 
L 1172 3053 
L 1172 1153 
Q 1172 725 1289 603 
Q 1406 481 1766 481 
L 2356 481 
L 2356 0 
L 1766 0 
Q 1100 0 847 248 
Q 594 497 594 1153 
L 594 3053 
L 172 3053 
L 172 3500 
L 594 3500 
L 594 4494 
L 1172 4494 
z
" transform="scale(0.015625)"/>
      <path id="DejaVuSans-6e" d="M 3513 2113 
L 3513 0 
L 2938 0 
L 2938 2094 
Q 2938 2591 2744 2837 
Q 2550 3084 2163 3084 
Q 1697 3084 1428 2787 
Q 1159 2491 1159 1978 
L 1159 0 
L 581 0 
L 581 3500 
L 1159 3500 
L 1159 2956 
Q 1366 3272 1645 3428 
Q 1925 3584 2291 3584 
Q 2894 3584 3203 3211 
Q 3513 2838 3513 2113 
z
" transform="scale(0.015625)"/>
      <path id="DejaVuSans-4a" d="M 628 4666 
L 1259 4666 
L 1259 325 
Q 1259 -519 939 -900 
Q 619 -1281 -91 -1281 
L -331 -1281 
L -331 -750 
L -134 -750 
Q 284 -750 456 -515 
Q 628 -281 628 325 
L 628 4666 
z
" transform="scale(0.015625)"/>
      <path id="DejaVuSans-27" d="M 1147 4666 
L 1147 2931 
L 616 2931 
L 616 4666 
L 1147 4666 
z
" transform="scale(0.015625)"/>
      <path id="DejaVuSans-49" d="M 628 4666 
L 1259 4666 
L 1259 0 
L 628 0 
L 628 4666 
z
" transform="scale(0.015625)"/>
      <path id="DejaVuSans-71" d="M 947 1747 
Q 947 1113 1208 752 
Q 1469 391 1925 391 
Q 2381 391 2643 752 
Q 2906 1113 2906 1747 
Q 2906 2381 2643 2742 
Q 2381 3103 1925 3103 
Q 1469 3103 1208 2742 
Q 947 2381 947 1747 
z
M 2906 525 
Q 2725 213 2448 61 
Q 2172 -91 1784 -91 
Q 1150 -91 751 415 
Q 353 922 353 1747 
Q 353 2572 751 3078 
Q 1150 3584 1784 3584 
Q 2172 3584 2448 3432 
Q 2725 3281 2906 2969 
L 2906 3500 
L 3481 3500 
L 3481 -1331 
L 2906 -1331 
L 2906 525 
z
" transform="scale(0.015625)"/>
      <path id="DejaVuSans-79" d="M 2059 -325 
Q 1816 -950 1584 -1140 
Q 1353 -1331 966 -1331 
L 506 -1331 
L 506 -850 
L 844 -850 
Q 1081 -850 1212 -737 
Q 1344 -625 1503 -206 
L 1606 56 
L 191 3500 
L 800 3500 
L 1894 763 
L 2988 3500 
L 3597 3500 
L 2059 -325 
z
" transform="scale(0.015625)"/>
      <path id="DejaVuSans-72" d="M 2631 2963 
Q 2534 3019 2420 3045 
Q 2306 3072 2169 3072 
Q 1681 3072 1420 2755 
Q 1159 2438 1159 1844 
L 1159 0 
L 581 0 
L 581 3500 
L 1159 3500 
L 1159 2956 
Q 1341 3275 1631 3429 
Q 1922 3584 2338 3584 
Q 2397 3584 2469 3576 
Q 2541 3569 2628 3553 
L 2631 2963 
z
" transform="scale(0.015625)"/>
      <path id="DejaVuSans-43" d="M 4122 4306 
L 4122 3641 
Q 3803 3938 3442 4084 
Q 3081 4231 2675 4231 
Q 1875 4231 1450 3742 
Q 1025 3253 1025 2328 
Q 1025 1406 1450 917 
Q 1875 428 2675 428 
Q 3081 428 3442 575 
Q 3803 722 4122 1019 
L 4122 359 
Q 3791 134 3420 21 
Q 3050 -91 2638 -91 
Q 1578 -91 968 557 
Q 359 1206 359 2328 
Q 359 3453 968 4101 
Q 1578 4750 2638 4750 
Q 3056 4750 3426 4639 
Q 3797 4528 4122 4306 
z
" transform="scale(0.015625)"/>
      <path id="DejaVuSans-63" d="M 3122 3366 
L 3122 2828 
Q 2878 2963 2633 3030 
Q 2388 3097 2138 3097 
Q 1578 3097 1268 2742 
Q 959 2388 959 1747 
Q 959 1106 1268 751 
Q 1578 397 2138 397 
Q 2388 397 2633 464 
Q 2878 531 3122 666 
L 3122 134 
Q 2881 22 2623 -34 
Q 2366 -91 2075 -91 
Q 1284 -91 818 406 
Q 353 903 353 1747 
Q 353 2603 823 3093 
Q 1294 3584 2113 3584 
Q 2378 3584 2631 3529 
Q 2884 3475 3122 3366 
z
" transform="scale(0.015625)"/>
      <path id="DejaVuSans-76" d="M 191 3500 
L 800 3500 
L 1894 563 
L 2988 3500 
L 3597 3500 
L 2284 0 
L 1503 0 
L 191 3500 
z
" transform="scale(0.015625)"/>
      <path id="DejaVuSans-46" d="M 628 4666 
L 3309 4666 
L 3309 4134 
L 1259 4134 
L 1259 2759 
L 3109 2759 
L 3109 2228 
L 1259 2228 
L 1259 0 
L 628 0 
L 628 4666 
z
" transform="scale(0.015625)"/>
     </defs>
     <use xlink:href="#DejaVuSans-56"/>
     <use xlink:href="#DejaVuSans-69" transform="translate(66.158203 0)"/>
     <use xlink:href="#DejaVuSans-73" transform="translate(93.941406 0)"/>
     <use xlink:href="#DejaVuSans-75" transform="translate(146.041016 0)"/>
     <use xlink:href="#DejaVuSans-61" transform="translate(209.419922 0)"/>
     <use xlink:href="#DejaVuSans-6c" transform="translate(270.699219 0)"/>
     <use xlink:href="#DejaVuSans-69" transform="translate(298.482422 0)"/>
     <use xlink:href="#DejaVuSans-7a" transform="translate(326.265625 0)"/>
     <use xlink:href="#DejaVuSans-61" transform="translate(378.755859 0)"/>
     <use xlink:href="#DejaVuSans-74" transform="translate(440.035156 0)"/>
     <use xlink:href="#DejaVuSans-69" transform="translate(479.244141 0)"/>
     <use xlink:href="#DejaVuSans-6f" transform="translate(507.027344 0)"/>
     <use xlink:href="#DejaVuSans-6e" transform="translate(568.208984 0)"/>
     <use xlink:href="#DejaVuSans-20" transform="translate(631.587891 0)"/>
     <use xlink:href="#DejaVuSans-6f" transform="translate(663.375 0)"/>
     <use xlink:href="#DejaVuSans-66" transform="translate(724.556641 0)"/>
     <use xlink:href="#DejaVuSans-20" transform="translate(759.761719 0)"/>
     <use xlink:href="#DejaVuSans-4a" transform="translate(791.548828 0)"/>
     <use xlink:href="#DejaVuSans-65" transform="translate(821.041016 0)"/>
     <use xlink:href="#DejaVuSans-6e" transform="translate(882.564453 0)"/>
     <use xlink:href="#DejaVuSans-73" transform="translate(945.943359 0)"/>
     <use xlink:href="#DejaVuSans-65" transform="translate(998.042969 0)"/>
     <use xlink:href="#DejaVuSans-6e" transform="translate(1059.566406 0)"/>
     <use xlink:href="#DejaVuSans-27" transform="translate(1122.945312 0)"/>
     <use xlink:href="#DejaVuSans-73" transform="translate(1150.435547 0)"/>
     <use xlink:href="#DejaVuSans-20" transform="translate(1202.535156 0)"/>
     <use xlink:href="#DejaVuSans-49" transform="translate(1234.322266 0)"/>
     <use xlink:href="#DejaVuSans-6e" transform="translate(1263.814453 0)"/>
     <use xlink:href="#DejaVuSans-65" transform="translate(1327.193359 0)"/>
     <use xlink:href="#DejaVuSans-71" transform="translate(1388.716797 0)"/>
     <use xlink:href="#DejaVuSans-75" transform="translate(1452.193359 0)"/>
     <use xlink:href="#DejaVuSans-61" transform="translate(1515.572266 0)"/>
     <use xlink:href="#DejaVuSans-6c" transform="translate(1576.851562 0)"/>
     <use xlink:href="#DejaVuSans-69" transform="translate(1604.634766 0)"/>
     <use xlink:href="#DejaVuSans-74" transform="translate(1632.417969 0)"/>
     <use xlink:href="#DejaVuSans-79" transform="translate(1671.626953 0)"/>
     <use xlink:href="#DejaVuSans-20" transform="translate(1730.806641 0)"/>
     <use xlink:href="#DejaVuSans-66" transform="translate(1762.59375 0)"/>
     <use xlink:href="#DejaVuSans-6f" transform="translate(1797.798828 0)"/>
     <use xlink:href="#DejaVuSans-72" transform="translate(1858.980469 0)"/>
     <use xlink:href="#DejaVuSans-20" transform="translate(1900.09375 0)"/>
     <use xlink:href="#DejaVuSans-61" transform="translate(1931.880859 0)"/>
     <use xlink:href="#DejaVuSans-20" transform="translate(1993.160156 0)"/>
     <use xlink:href="#DejaVuSans-43" transform="translate(2024.947266 0)"/>
     <use xlink:href="#DejaVuSans-6f" transform="translate(2094.771484 0)"/>
     <use xlink:href="#DejaVuSans-6e" transform="translate(2155.953125 0)"/>
     <use xlink:href="#DejaVuSans-63" transform="translate(2219.332031 0)"/>
     <use xlink:href="#DejaVuSans-61" transform="translate(2274.3125 0)"/>
     <use xlink:href="#DejaVuSans-76" transform="translate(2335.591797 0)"/>
     <use xlink:href="#DejaVuSans-65" transform="translate(2394.771484 0)"/>
     <use xlink:href="#DejaVuSans-20" transform="translate(2456.294922 0)"/>
     <use xlink:href="#DejaVuSans-46" transform="translate(2488.082031 0)"/>
     <use xlink:href="#DejaVuSans-75" transform="translate(2540.101562 0)"/>
     <use xlink:href="#DejaVuSans-6e" transform="translate(2603.480469 0)"/>
     <use xlink:href="#DejaVuSans-63" transform="translate(2666.859375 0)"/>
     <use xlink:href="#DejaVuSans-74" transform="translate(2721.839844 0)"/>
     <use xlink:href="#DejaVuSans-69" transform="translate(2761.048828 0)"/>
     <use xlink:href="#DejaVuSans-6f" transform="translate(2788.832031 0)"/>
     <use xlink:href="#DejaVuSans-6e" transform="translate(2850.013672 0)"/>
    </g>
   </g>
   <g id="legend_1">
    <g id="patch_9">
     <path d="M 530.1 79.634375 
L 702.2 79.634375 
Q 704.2 79.634375 704.2 77.634375 
L 704.2 34.6 
Q 704.2 32.6 702.2 32.6 
L 530.1 32.6 
Q 528.1 32.6 528.1 34.6 
L 528.1 77.634375 
Q 528.1 79.634375 530.1 79.634375 
z
" style="fill: #ffffff; opacity: 0.8; stroke: #cccccc; stroke-linejoin: miter"/>
    </g>
    <g id="line2d_26">
     <path d="M 532.1 40.698438 
L 542.1 40.698438 
L 552.1 40.698438 
" style="fill: none; stroke: #0000ff; stroke-width: 2; stroke-linecap: square"/>
    </g>
    <g id="text_17">
     <!-- Concave function f(x) -->
     <g transform="translate(560.1 44.198438) scale(0.1 -0.1)">
      <use xlink:href="#DejaVuSans-43"/>
      <use xlink:href="#DejaVuSans-6f" transform="translate(69.824219 0)"/>
      <use xlink:href="#DejaVuSans-6e" transform="translate(131.005859 0)"/>
      <use xlink:href="#DejaVuSans-63" transform="translate(194.384766 0)"/>
      <use xlink:href="#DejaVuSans-61" transform="translate(249.365234 0)"/>
      <use xlink:href="#DejaVuSans-76" transform="translate(310.644531 0)"/>
      <use xlink:href="#DejaVuSans-65" transform="translate(369.824219 0)"/>
      <use xlink:href="#DejaVuSans-20" transform="translate(431.347656 0)"/>
      <use xlink:href="#DejaVuSans-66" transform="translate(463.134766 0)"/>
      <use xlink:href="#DejaVuSans-75" transform="translate(498.339844 0)"/>
      <use xlink:href="#DejaVuSans-6e" transform="translate(561.71875 0)"/>
      <use xlink:href="#DejaVuSans-63" transform="translate(625.097656 0)"/>
      <use xlink:href="#DejaVuSans-74" transform="translate(680.078125 0)"/>
      <use xlink:href="#DejaVuSans-69" transform="translate(719.287109 0)"/>
      <use xlink:href="#DejaVuSans-6f" transform="translate(747.070312 0)"/>
      <use xlink:href="#DejaVuSans-6e" transform="translate(808.251953 0)"/>
      <use xlink:href="#DejaVuSans-20" transform="translate(871.630859 0)"/>
      <use xlink:href="#DejaVuSans-66" transform="translate(903.417969 0)"/>
      <use xlink:href="#DejaVuSans-28" transform="translate(938.623047 0)"/>
      <use xlink:href="#DejaVuSans-78" transform="translate(977.636719 0)"/>
      <use xlink:href="#DejaVuSans-29" transform="translate(1036.816406 0)"/>
     </g>
    </g>
    <g id="PathCollection_2">
     <g>
      <use xlink:href="#m091d975221" x="542.1" y="56.251563" style="fill: #ff0000; stroke: #ff0000"/>
     </g>
    </g>
    <g id="text_18">
     <!-- ($X_i$, $f(X_i)$) -->
     <g transform="translate(560.1 58.876563) scale(0.1 -0.1)">
      <defs>
       <path id="DejaVuSans-Oblique-69" d="M 1172 4863 
L 1747 4863 
L 1606 4134 
L 1031 4134 
L 1172 4863 
z
M 909 3500 
L 1484 3500 
L 800 0 
L 225 0 
L 909 3500 
z
" transform="scale(0.015625)"/>
      </defs>
      <use xlink:href="#DejaVuSans-28" transform="translate(0 0.015625)"/>
      <use xlink:href="#DejaVuSans-Oblique-58" transform="translate(39.013672 0.015625)"/>
      <use xlink:href="#DejaVuSans-Oblique-69" transform="translate(107.519531 -16.390625) scale(0.7)"/>
      <use xlink:href="#DejaVuSans-2c" transform="translate(129.702148 0.015625)"/>
      <use xlink:href="#DejaVuSans-20" transform="translate(161.489258 0.015625)"/>
      <use xlink:href="#DejaVuSans-Oblique-66" transform="translate(193.276367 0.015625)"/>
      <use xlink:href="#DejaVuSans-28" transform="translate(228.481445 0.015625)"/>
      <use xlink:href="#DejaVuSans-Oblique-58" transform="translate(267.495117 0.015625)"/>
      <use xlink:href="#DejaVuSans-Oblique-69" transform="translate(336.000977 -16.390625) scale(0.7)"/>
      <use xlink:href="#DejaVuSans-29" transform="translate(358.183594 0.015625)"/>
      <use xlink:href="#DejaVuSans-29" transform="translate(397.197266 0.015625)"/>
     </g>
    </g>
    <g id="patch_10">
     <path d="M 532.1 73.554688 
L 552.1 73.554688 
L 552.1 66.554688 
L 532.1 66.554688 
z
" style="fill: #008000; opacity: 0.3; stroke: #008000; stroke-width: 2; stroke-linejoin: miter"/>
    </g>
    <g id="text_19">
     <!-- Where ($E[X]$, $E[f(X)]$) can be -->
     <g transform="translate(560.1 73.554688) scale(0.1 -0.1)">
      <defs>
       <path id="DejaVuSans-57" d="M 213 4666 
L 850 4666 
L 1831 722 
L 2809 4666 
L 3519 4666 
L 4500 722 
L 5478 4666 
L 6119 4666 
L 4947 0 
L 4153 0 
L 3169 4050 
L 2175 0 
L 1381 0 
L 213 4666 
z
" transform="scale(0.015625)"/>
       <path id="DejaVuSans-68" d="M 3513 2113 
L 3513 0 
L 2938 0 
L 2938 2094 
Q 2938 2591 2744 2837 
Q 2550 3084 2163 3084 
Q 1697 3084 1428 2787 
Q 1159 2491 1159 1978 
L 1159 0 
L 581 0 
L 581 4863 
L 1159 4863 
L 1159 2956 
Q 1366 3272 1645 3428 
Q 1925 3584 2291 3584 
Q 2894 3584 3203 3211 
Q 3513 2838 3513 2113 
z
" transform="scale(0.015625)"/>
      </defs>
      <use xlink:href="#DejaVuSans-57" transform="translate(0 0.015625)"/>
      <use xlink:href="#DejaVuSans-68" transform="translate(98.876953 0.015625)"/>
      <use xlink:href="#DejaVuSans-65" transform="translate(162.255859 0.015625)"/>
      <use xlink:href="#DejaVuSans-72" transform="translate(223.779297 0.015625)"/>
      <use xlink:href="#DejaVuSans-65" transform="translate(264.892578 0.015625)"/>
      <use xlink:href="#DejaVuSans-20" transform="translate(326.416016 0.015625)"/>
      <use xlink:href="#DejaVuSans-28" transform="translate(358.203125 0.015625)"/>
      <use xlink:href="#DejaVuSans-Oblique-45" transform="translate(397.216797 0.015625)"/>
      <use xlink:href="#DejaVuSans-5b" transform="translate(460.400391 0.015625)"/>
      <use xlink:href="#DejaVuSans-Oblique-58" transform="translate(499.414062 0.015625)"/>
      <use xlink:href="#DejaVuSans-5d" transform="translate(567.919922 0.015625)"/>
      <use xlink:href="#DejaVuSans-2c" transform="translate(606.933594 0.015625)"/>
      <use xlink:href="#DejaVuSans-20" transform="translate(638.720703 0.015625)"/>
      <use xlink:href="#DejaVuSans-Oblique-45" transform="translate(670.507812 0.015625)"/>
      <use xlink:href="#DejaVuSans-5b" transform="translate(733.691406 0.015625)"/>
      <use xlink:href="#DejaVuSans-Oblique-66" transform="translate(772.705078 0.015625)"/>
      <use xlink:href="#DejaVuSans-28" transform="translate(807.910156 0.015625)"/>
      <use xlink:href="#DejaVuSans-Oblique-58" transform="translate(846.923828 0.015625)"/>
      <use xlink:href="#DejaVuSans-29" transform="translate(915.429688 0.015625)"/>
      <use xlink:href="#DejaVuSans-5d" transform="translate(954.443359 0.015625)"/>
      <use xlink:href="#DejaVuSans-29" transform="translate(993.457031 0.015625)"/>
      <use xlink:href="#DejaVuSans-20" transform="translate(1032.470703 0.015625)"/>
      <use xlink:href="#DejaVuSans-63" transform="translate(1064.257812 0.015625)"/>
      <use xlink:href="#DejaVuSans-61" transform="translate(1119.238281 0.015625)"/>
      <use xlink:href="#DejaVuSans-6e" transform="translate(1180.517578 0.015625)"/>
      <use xlink:href="#DejaVuSans-20" transform="translate(1243.896484 0.015625)"/>
      <use xlink:href="#DejaVuSans-62" transform="translate(1275.683594 0.015625)"/>
      <use xlink:href="#DejaVuSans-65" transform="translate(1339.160156 0.015625)"/>
     </g>
    </g>
   </g>
  </g>
 </g>
 <defs>
  <clipPath id="p766faa290e">
   <rect x="49.52" y="27.6" width="659.68" height="359.56"/>
  </clipPath>
 </defs>
</svg>
